<mxfile host="app.diagrams.net" modified="2023-05-19T08:12:25.659Z" agent="Mozilla/5.0 (X11; Linux x86_64; rv:102.0) Gecko/20100101 Firefox/102.0" etag="rYNgpNxJeOPG5RvGw7Rs" version="21.3.2" type="device">
  <diagram name="PÃ¡gina-1" id="T4vvddO6oG1vdCipwLHY">
    <mxGraphModel dx="433" dy="243" grid="1" gridSize="10" guides="1" tooltips="1" connect="1" arrows="1" fold="1" page="1" pageScale="1" pageWidth="1169" pageHeight="827" math="0" shadow="0">
      <root>
        <mxCell id="0" />
        <mxCell id="1" parent="0" />
        <mxCell id="iRn7FRCo_6LsqSLcC2iQ-1" value="" style="shape=table;startSize=0;container=1;collapsible=0;childLayout=tableLayout;fontSize=16;" vertex="1" parent="1">
          <mxGeometry x="320" y="280" width="120" height="120" as="geometry" />
        </mxCell>
        <mxCell id="iRn7FRCo_6LsqSLcC2iQ-2" value="" style="shape=tableRow;horizontal=0;startSize=0;swimlaneHead=0;swimlaneBody=0;strokeColor=inherit;top=0;left=0;bottom=0;right=0;collapsible=0;dropTarget=0;fillColor=none;points=[[0,0.5],[1,0.5]];portConstraint=eastwest;fontSize=16;" vertex="1" parent="iRn7FRCo_6LsqSLcC2iQ-1">
          <mxGeometry width="120" height="40" as="geometry" />
        </mxCell>
        <mxCell id="iRn7FRCo_6LsqSLcC2iQ-3" value="" style="shape=partialRectangle;html=1;whiteSpace=wrap;connectable=0;strokeColor=inherit;overflow=hidden;fillColor=none;top=0;left=0;bottom=0;right=0;pointerEvents=1;fontSize=16;" vertex="1" parent="iRn7FRCo_6LsqSLcC2iQ-2">
          <mxGeometry width="40" height="40" as="geometry">
            <mxRectangle width="40" height="40" as="alternateBounds" />
          </mxGeometry>
        </mxCell>
        <mxCell id="iRn7FRCo_6LsqSLcC2iQ-4" value="" style="shape=partialRectangle;html=1;whiteSpace=wrap;connectable=0;strokeColor=inherit;overflow=hidden;fillColor=none;top=0;left=0;bottom=0;right=0;pointerEvents=1;fontSize=16;" vertex="1" parent="iRn7FRCo_6LsqSLcC2iQ-2">
          <mxGeometry x="40" width="40" height="40" as="geometry">
            <mxRectangle width="40" height="40" as="alternateBounds" />
          </mxGeometry>
        </mxCell>
        <mxCell id="iRn7FRCo_6LsqSLcC2iQ-5" value="" style="shape=partialRectangle;html=1;whiteSpace=wrap;connectable=0;strokeColor=inherit;overflow=hidden;fillColor=none;top=0;left=0;bottom=0;right=0;pointerEvents=1;fontSize=16;" vertex="1" parent="iRn7FRCo_6LsqSLcC2iQ-2">
          <mxGeometry x="80" width="40" height="40" as="geometry">
            <mxRectangle width="40" height="40" as="alternateBounds" />
          </mxGeometry>
        </mxCell>
        <mxCell id="iRn7FRCo_6LsqSLcC2iQ-6" value="" style="shape=tableRow;horizontal=0;startSize=0;swimlaneHead=0;swimlaneBody=0;strokeColor=inherit;top=0;left=0;bottom=0;right=0;collapsible=0;dropTarget=0;fillColor=none;points=[[0,0.5],[1,0.5]];portConstraint=eastwest;fontSize=16;" vertex="1" parent="iRn7FRCo_6LsqSLcC2iQ-1">
          <mxGeometry y="40" width="120" height="40" as="geometry" />
        </mxCell>
        <mxCell id="iRn7FRCo_6LsqSLcC2iQ-7" value="" style="shape=partialRectangle;html=1;whiteSpace=wrap;connectable=0;strokeColor=inherit;overflow=hidden;fillColor=none;top=0;left=0;bottom=0;right=0;pointerEvents=1;fontSize=16;" vertex="1" parent="iRn7FRCo_6LsqSLcC2iQ-6">
          <mxGeometry width="40" height="40" as="geometry">
            <mxRectangle width="40" height="40" as="alternateBounds" />
          </mxGeometry>
        </mxCell>
        <mxCell id="iRn7FRCo_6LsqSLcC2iQ-8" value="" style="shape=partialRectangle;html=1;whiteSpace=wrap;connectable=0;strokeColor=inherit;overflow=hidden;fillColor=none;top=0;left=0;bottom=0;right=0;pointerEvents=1;fontSize=16;" vertex="1" parent="iRn7FRCo_6LsqSLcC2iQ-6">
          <mxGeometry x="40" width="40" height="40" as="geometry">
            <mxRectangle width="40" height="40" as="alternateBounds" />
          </mxGeometry>
        </mxCell>
        <mxCell id="iRn7FRCo_6LsqSLcC2iQ-9" value="" style="shape=partialRectangle;html=1;whiteSpace=wrap;connectable=0;strokeColor=inherit;overflow=hidden;fillColor=none;top=0;left=0;bottom=0;right=0;pointerEvents=1;fontSize=16;" vertex="1" parent="iRn7FRCo_6LsqSLcC2iQ-6">
          <mxGeometry x="80" width="40" height="40" as="geometry">
            <mxRectangle width="40" height="40" as="alternateBounds" />
          </mxGeometry>
        </mxCell>
        <mxCell id="iRn7FRCo_6LsqSLcC2iQ-10" value="" style="shape=tableRow;horizontal=0;startSize=0;swimlaneHead=0;swimlaneBody=0;strokeColor=inherit;top=0;left=0;bottom=0;right=0;collapsible=0;dropTarget=0;fillColor=none;points=[[0,0.5],[1,0.5]];portConstraint=eastwest;fontSize=16;" vertex="1" parent="iRn7FRCo_6LsqSLcC2iQ-1">
          <mxGeometry y="80" width="120" height="40" as="geometry" />
        </mxCell>
        <mxCell id="iRn7FRCo_6LsqSLcC2iQ-11" value="" style="shape=partialRectangle;html=1;whiteSpace=wrap;connectable=0;strokeColor=inherit;overflow=hidden;fillColor=none;top=0;left=0;bottom=0;right=0;pointerEvents=1;fontSize=16;" vertex="1" parent="iRn7FRCo_6LsqSLcC2iQ-10">
          <mxGeometry width="40" height="40" as="geometry">
            <mxRectangle width="40" height="40" as="alternateBounds" />
          </mxGeometry>
        </mxCell>
        <mxCell id="iRn7FRCo_6LsqSLcC2iQ-12" value="" style="shape=partialRectangle;html=1;whiteSpace=wrap;connectable=0;strokeColor=inherit;overflow=hidden;fillColor=none;top=0;left=0;bottom=0;right=0;pointerEvents=1;fontSize=16;" vertex="1" parent="iRn7FRCo_6LsqSLcC2iQ-10">
          <mxGeometry x="40" width="40" height="40" as="geometry">
            <mxRectangle width="40" height="40" as="alternateBounds" />
          </mxGeometry>
        </mxCell>
        <mxCell id="iRn7FRCo_6LsqSLcC2iQ-13" value="" style="shape=partialRectangle;html=1;whiteSpace=wrap;connectable=0;strokeColor=inherit;overflow=hidden;fillColor=none;top=0;left=0;bottom=0;right=0;pointerEvents=1;fontSize=16;" vertex="1" parent="iRn7FRCo_6LsqSLcC2iQ-10">
          <mxGeometry x="80" width="40" height="40" as="geometry">
            <mxRectangle width="40" height="40" as="alternateBounds" />
          </mxGeometry>
        </mxCell>
        <mxCell id="iRn7FRCo_6LsqSLcC2iQ-14" value="" style="endArrow=none;html=1;rounded=0;" edge="1" parent="1">
          <mxGeometry width="50" height="50" relative="1" as="geometry">
            <mxPoint x="300" y="340" as="sourcePoint" />
            <mxPoint x="460" y="380" as="targetPoint" />
          </mxGeometry>
        </mxCell>
        <mxCell id="iRn7FRCo_6LsqSLcC2iQ-28" style="rounded=0;orthogonalLoop=1;jettySize=auto;html=1;fillColor=#50A1F2;strokeColor=#004489;strokeWidth=0.5;" edge="1" parent="1" source="iRn7FRCo_6LsqSLcC2iQ-16" target="iRn7FRCo_6LsqSLcC2iQ-26">
          <mxGeometry relative="1" as="geometry" />
        </mxCell>
        <mxCell id="iRn7FRCo_6LsqSLcC2iQ-29" style="rounded=0;orthogonalLoop=1;jettySize=auto;html=1;fillColor=#50A1F2;strokeColor=#004489;strokeWidth=0.5;" edge="1" parent="1" source="iRn7FRCo_6LsqSLcC2iQ-16" target="iRn7FRCo_6LsqSLcC2iQ-25">
          <mxGeometry relative="1" as="geometry" />
        </mxCell>
        <mxCell id="iRn7FRCo_6LsqSLcC2iQ-30" style="edgeStyle=orthogonalEdgeStyle;rounded=0;orthogonalLoop=1;jettySize=auto;html=1;fillColor=#50A1F2;strokeColor=#004489;strokeWidth=0.5;" edge="1" parent="1" source="iRn7FRCo_6LsqSLcC2iQ-16" target="iRn7FRCo_6LsqSLcC2iQ-24">
          <mxGeometry relative="1" as="geometry" />
        </mxCell>
        <mxCell id="iRn7FRCo_6LsqSLcC2iQ-31" style="rounded=0;orthogonalLoop=1;jettySize=auto;html=1;fillColor=#50A1F2;strokeColor=#004489;strokeWidth=0.5;" edge="1" parent="1" source="iRn7FRCo_6LsqSLcC2iQ-16" target="iRn7FRCo_6LsqSLcC2iQ-23">
          <mxGeometry relative="1" as="geometry" />
        </mxCell>
        <mxCell id="iRn7FRCo_6LsqSLcC2iQ-16" value="" style="ellipse;whiteSpace=wrap;html=1;aspect=fixed;fillColor=#F1B880;strokeColor=#f18e00;" vertex="1" parent="1">
          <mxGeometry x="375" y="355" width="10" height="10" as="geometry" />
        </mxCell>
        <mxCell id="iRn7FRCo_6LsqSLcC2iQ-21" value="" style="ellipse;whiteSpace=wrap;html=1;aspect=fixed;fillColor=#F1B880;strokeColor=#f18e00;" vertex="1" parent="1">
          <mxGeometry x="415" y="365" width="10" height="10" as="geometry" />
        </mxCell>
        <mxCell id="iRn7FRCo_6LsqSLcC2iQ-22" value="" style="ellipse;whiteSpace=wrap;html=1;aspect=fixed;fillColor=#F1B880;strokeColor=#f18e00;" vertex="1" parent="1">
          <mxGeometry x="335" y="345" width="10" height="10" as="geometry" />
        </mxCell>
        <mxCell id="iRn7FRCo_6LsqSLcC2iQ-23" value="" style="ellipse;whiteSpace=wrap;html=1;aspect=fixed;fillColor=#50A1F2;strokeColor=#004489;" vertex="1" parent="1">
          <mxGeometry x="415" y="375" width="10" height="10" as="geometry" />
        </mxCell>
        <mxCell id="iRn7FRCo_6LsqSLcC2iQ-24" value="" style="ellipse;whiteSpace=wrap;html=1;aspect=fixed;fillColor=#50A1F2;strokeColor=#004489;" vertex="1" parent="1">
          <mxGeometry x="375" y="375" width="10" height="10" as="geometry" />
        </mxCell>
        <mxCell id="iRn7FRCo_6LsqSLcC2iQ-25" value="" style="ellipse;whiteSpace=wrap;html=1;aspect=fixed;fillColor=#50A1F2;strokeColor=#004489;" vertex="1" parent="1">
          <mxGeometry x="375" y="335" width="10" height="10" as="geometry" />
        </mxCell>
        <mxCell id="iRn7FRCo_6LsqSLcC2iQ-26" value="" style="ellipse;whiteSpace=wrap;html=1;aspect=fixed;fillColor=#50A1F2;strokeColor=#004489;" vertex="1" parent="1">
          <mxGeometry x="415" y="335" width="10" height="10" as="geometry" />
        </mxCell>
      </root>
    </mxGraphModel>
  </diagram>
</mxfile>
